<?xml version="1.0" encoding="UTF-8"?>
<svg id="Layer_2" data-name="Layer 2" xmlns="http://www.w3.org/2000/svg" viewBox="0 0 14.22 13.58">
  <defs>
    <style>
      .cls-1 {
        fill: #2e2e2e;
      }
    </style>
  </defs>
  <g id="Layer_1-2" data-name="Layer 1">
    <path class="cls-1" d="M7.73,13.45c-.2.25-.6.11-.6-.21v-3.08c0-.37-.3-.68-.68-.68h-3.4c-.28,0-.44-.31-.28-.53l2.24-3.13c.32-.45,0-1.07-.55-1.07H.34c-.28,0-.44-.31-.28-.53L2.97.14c.06-.09.17-.14.28-.14h8.65c.28,0,.44.31.28.53l-2.24,3.13c-.32.45,0,1.07.55,1.07h3.4c.28,0,.44.33.27.55l-6.41,8.16h0Z"/>
  </g>
</svg>