<?xml version="1.0" encoding="UTF-8"?>
<svg id="Layer_2" data-name="Layer 2" xmlns="http://www.w3.org/2000/svg" viewBox="0 0 800 800">
  <defs>
    <style>
      .cls-1 {
        fill: #2e2e2e;
        fill-rule: evenodd;
      }
    </style>
  </defs>
  <g id="Layer_1-2" data-name="Layer 1">
    <g>
      <path class="cls-1" d="M470.21,379.12c-41.83,0-63.5,37.45-63.5,84.14,0,50.16,24.67,81.64,62.95,81.64,26.61,0,47.8-18.13,53.22-44.19,1.88-6.53,2.44-13.34,2.44-21.19v-38.56c0-4.86-.56-11.67-1.39-16.54-5.42-24.66-25.22-45.3-53.71-45.3Z"/>
      <path class="cls-1" d="M0,0v800h800V0H0ZM272.82,611.39h-92.54V203.48h92.54v407.91ZM538.02,611.39l-4.03-43.42h-1.39c-18.69,33.14-54.54,50.23-92.55,50.23-70.31,0-126.45-59.96-126.45-151.95-.84-99.91,61.63-157.44,132.43-157.44,36.41,0,64.89,12.79,78.16,33.35h1.11v-160.36h91.99v341.14c0,33.35,1.39,68.64,2.43,88.44h-81.71Z"/>
    </g>
  </g>
</svg>