<?xml version="1.0" encoding="UTF-8"?>
<svg id="Layer_2" data-name="Layer 2" xmlns="http://www.w3.org/2000/svg" viewBox="0 0 288 288">
  <defs>
    <style>
      .cls-1 {
        fill: #2e2e2e;
      }
    </style>
  </defs>
  <g id="Layer_1-2" data-name="Layer 1">
    <path class="cls-1" d="M288,0H0v288h288V0ZM223.31,137.2c-4.9,19.9-18.45,36.11-37.18,44.45l-24.56,12.29,8.05,11.94c4.94,7.33,3.01,17.26-4.32,22.21h0c-7.33,4.93-17.26,2.99-22.21-4.32l-8.05-11.92c-10.8-16.02-5.06-37.87,12.22-46.51l25.2-12.59c10.29-4.59,17.25-12.93,19.76-23.15,2.94-11.95-.72-24.45-10.02-33.09-10.58-9.82-26.67-10.96-39.57-4.46l-44.05,22.16c-2.85,1.42-3.82,3.86-4.16,5.18s-.61,3.94,1.22,6.53c2.24,3.18,6.45,4.29,9.92,2.62l34.77-16.35c8-3.76,17.52-.32,21.28,7.66v.02c3.76,8,.32,17.52-7.66,21.28l-33.2,15.6c-13.5,6.35-29.79,5.9-41.86-2.86-13.73-10-19.42-26.75-15.5-42.29,2.83-11.3,10.42-20.78,20.82-26l42.37-21.33c26.88-13.54,66.19-6.96,84.7,16.77,12.51,15.98,16.9,36.45,12.03,56.18Z"/>
  </g>
</svg>