<?xml version="1.0" encoding="UTF-8"?>
<svg id="Layer_2" data-name="Layer 2" xmlns="http://www.w3.org/2000/svg" viewBox="0 0 800 780">
  <defs>
    <style>
      .cls-1 {
        fill: #2e2e2e;
      }
    </style>
  </defs>
  <g id="ps_cc_app_RGB.svg">
    <path class="cls-1" d="M561.67,324.33c8,0,14.33,1,19.33,3.33h-.33v165c-6.33,2.67-15,3.67-23,3.67-37.33,0-66-24.67-66-86,0-53.67,28-86,70-86ZM800,0v780H0V0h800ZM411.33,540l-93.33-181,88-169c1.67-3,.67-5-2-5h-53.67c-3.33,0-4.33,1.67-6,4.33-20.33,43.67-41.67,88-61,132h-.67c-20-44.67-41.33-88.33-62.33-132.67-1-3-2.67-3.67-6-3.67h-57.33c-2.33,0-4.33,2.33-2.33,5l88.33,174.67-91.33,175.67c-1.67,2-1.33,4.67,2,4.67h55.33c2.67,0,4.33-1,6-3.67,21.33-44,43.33-92.67,63.33-137.33h.67c22.33,47.33,44,93,65.33,137,1.67,3.33,3.33,4.33,7,4.33h58c2.67,0,3.67-2.67,2-5.33ZM643,525.33c-1.67-12.33-1.67-23.67-1.67-32.67V188c0-1.67-.67-2.67-3.33-2.67h-53.67c-1.67,0-3.33,1.33-3.33,3.33v86.67c-6.67-.67-10.33-.67-17.33-.67-82,0-132,60.67-132,138.33h0c0,90.67,51.67,135.33,124,135.33,28,0,57.33-6,85.33-19.33,2-1,2-1.33,2-3.67Z"/>
  </g>
</svg>