<?xml version="1.0" encoding="UTF-8"?>
<svg id="Layer_2" data-name="Layer 2" xmlns="http://www.w3.org/2000/svg" viewBox="0 0 2499.93 2034">
  <defs>
    <style>
      .cls-1 {
        fill: #2e2e2e;
      }
    </style>
  </defs>
  <g id="Layer_1-2" data-name="Layer 1">
    <path class="cls-1" d="M2492.6,1132.66c-14.67-103.21-50.41-201.09-106.28-290.89-48.72-78.37-111.24-148.07-185.86-207.31l.2-.19L1416.95,32.35c-.56-.5-1.15-.97-1.77-1.4-26.06-19.96-61.33-30.94-99.3-30.94s-74.67,11.01-103.17,31.01c-30.64,21.4-48.15,49.8-49.38,80.03-1.12,28.2,12.33,55.34,37.98,76.49,50.44,39.8,100.76,80.46,151.16,121.18,48.91,39.53,99.3,80.24,149.45,119.87l-959.92-.65c-109.78,0-184.52,51.55-199.9,137.85-6.76,37.8,5.17,79.37,31.82,111.2,28.28,33.75,69.33,52.36,115.6,52.36l73.18.05c101.09,0,202.63-.25,304.03-.49l96.7-.23L92.24,1373.21l-3.46,2.53c-48.66,37.3-80.52,89.59-87.39,143.46-5.21,40.81,4.31,78.1,27.54,107.89,27.69,35.51,70.92,55.04,121.74,55.04s100.87-18.92,143.51-53.36l470.46-385.02c-2.01,18.8-4.45,46.38-4.17,66.4.53,31.7,10.7,95.3,26.81,146.93,33.29,106.11,89.36,203.2,166.64,288.46,80.42,88.71,178.36,159.04,291.09,209.01,119.17,52.71,247.29,79.46,380.79,79.46h1.24c133.93-.32,262.45-27.5,382.01-80.81,112.91-50.56,210.81-121.18,290.93-209.87,77.19-85.7,133.18-182.94,166.4-288.97,16.44-52.48,26.96-106.64,31.39-161.46,4.1-52.98,2.34-106.89-5.17-160.23h0ZM1635.57,1641.25c-294.22,0-532.82-213.43-532.82-476.73s238.6-476.7,532.82-476.7,532.8,213.43,532.8,476.7c0,263.3-238.57,476.73-532.8,476.73ZM1942.83,1122.63c4.34,78.58-27.05,151.55-82.17,205.57-56.07,55.03-136.08,89.59-225.55,89.59s-169.45-34.56-225.54-89.59c-55.1-54.01-86.42-126.97-82.11-205.5,4.23-76.33,41.46-143.71,97.55-191.42,55.15-46.91,129.2-75.53,210.1-75.53s154.94,28.63,210.09,75.53c56.11,47.71,93.36,115.04,97.63,191.36h0Z"/>
  </g>
</svg>