<?xml version="1.0" encoding="UTF-8"?>
<svg id="Layer_2" data-name="Layer 2" xmlns="http://www.w3.org/2000/svg" viewBox="0 0 438.84 438.86">
  <defs>
    <style>
      .cls-1 {
        fill: #2e2e2e;
      }
    </style>
  </defs>
  <g id="Layer_1-2" data-name="Layer 1" focusable="false">
    <path class="cls-1" d="M318.73,181.98c-23.63,0-33.57,21.45-35.13,36.98h66.51c.32-13.98-5.9-36.98-31.39-36.98ZM149.31,131.62h-.62c-3.11,12.12-6.22,26.73-9.95,39.16l-16.16,51.6h53.77l-16.48-51.6c-4.03-12.74-7.45-27.04-10.56-39.16ZM0,0v438.86h438.84V0S0,0,0,0ZM201.85,310.67l-18.96-59.36h-66.51l-18.03,59.36h-39.48L126,101.17h48.8l68.07,209.5h-41.01ZM384.93,245.7h-101.33c.94,27.36,22.38,39.17,46.63,39.17,17.72,0,30.46-2.49,41.97-6.84l5.59,26.42c-13.06,5.28-31.08,9.33-52.84,9.33-49.11,0-78.02-30.15-78.02-76.46,0-41.96,25.49-81.44,73.98-81.44s65.27,40.4,65.27,73.66c0,7.15-.62,12.74-1.25,16.16h0Z"/>
  </g>
</svg>