<?xml version="1.0" encoding="UTF-8"?>
<svg id="Layer_2" data-name="Layer 2" xmlns="http://www.w3.org/2000/svg" viewBox="0 0 384.15 384.15">
  <defs>
    <style>
      .cls-1 {
        fill: #fff;
      }
    </style>
  </defs>
  <g id="Layer_1-2" data-name="Layer 1">
    <path class="cls-1" d="M54.68,9.47C42.18-3.03,21.88-3.03,9.38,9.47c-12.5,12.5-12.5,32.8,0,45.3l137.4,137.3L9.47,329.47c-12.5,12.5-12.5,32.8,0,45.3,12.5,12.5,32.8,12.5,45.3,0l137.3-137.4,137.4,137.3c12.5,12.5,32.8,12.5,45.3,0,12.5-12.5,12.5-32.8,0-45.3l-137.4-137.3L374.68,54.68c12.5-12.5,12.5-32.8,0-45.3-12.5-12.5-32.8-12.5-45.3,0l-137.3,137.4L54.68,9.47Z"/>
  </g>
</svg>