<?xml version="1.0" encoding="UTF-8"?>
<svg id="Layer_2" data-name="Layer 2" xmlns="http://www.w3.org/2000/svg" viewBox="0 0 800 800">
  <defs>
    <style>
      .cls-1 {
        fill: #2e2e2e;
        fill-rule: evenodd;
      }
    </style>
  </defs>
  <g id="Layer_1-2" data-name="Layer 1">
    <g>
      <path class="cls-1" d="M262.56,254.6c-19.46,0-32.88,1.94-39.64,3.88v126.02c8.26,1.78,18.24,2.39,32.1,2.39,51.28,0,83.16-25.95,83.16-69.75-.22-39.2-27.33-62.54-75.62-62.54Z"/>
      <path class="cls-1" d="M0,0v800h800V0H0ZM394.23,416.16c-32.71,30.94-81.61,44.8-138.61,44.8-12.53,0-24.01-.44-32.88-1.72v152.69h-95.53V190.67c29.67-4.99,71.47-8.87,130.35-8.87s102.01,11.25,130.4,34.21c27.5,21.46,45.68,57,45.68,98.8,0,41.75-13.86,77.29-39.42,101.35ZM538.5,618.2c-40.53,0-76.68-8.87-100.07-21.62l17.13-68.92c17.74,10.65,54.34,23.4,82.94,23.4s41.14-10.15,41.14-26-9.54-23.34-45.46-35.48c-64.15-21.45-88.82-56.33-88.16-93.14,0-57.61,49.4-101.35,126.02-101.35,36.21,0,68.47,8.21,87.49,17.74l-17.08,66.53c-14.08-7.59-40.53-17.8-67.14-17.8-23.4,0-36.59,9.54-36.59,25.34,0,14.52,11.92,22.12,49.79,35.54,58.94,20.12,83.61,50.01,84.28,95.53,0,57.83-45.74,100.24-134.29,100.24Z"/>
    </g>
  </g>
</svg>