<?xml version="1.0" encoding="UTF-8"?>
<svg id="Layer_2" data-name="Layer 2" xmlns="http://www.w3.org/2000/svg" viewBox="0 0 450 650">
  <defs>
    <style>
      .cls-1 {
        fill: #2e2e2e;
        fill-rule: evenodd;
      }
    </style>
  </defs>
  <g id="Layer_1-2" data-name="Layer 1">
    <path class="cls-1" d="M125,0C55.96,0,0,55.96,0,125c0,40.89,19.63,77.19,49.99,100C19.63,247.81,0,284.11,0,325s19.63,77.19,49.99,100C19.63,447.81,0,484.11,0,525c0,69.04,55.96,125,125,125s125-55.96,125-125v-99.99c20.89,15.69,46.86,24.99,75,24.99,69.04,0,125-55.96,125-125,0-40.89-19.63-77.19-49.99-100,30.35-22.81,49.99-59.11,49.99-100C450,55.96,394.04,0,325,0H125ZM325,200c41.42,0,75-33.58,75-75s-33.58-75-75-75h-75v150h75ZM200,325v-75h-75c-41.42,0-75,33.58-75,75s33.58,75,75,75h75v-75ZM250,325c0-41.42,33.58-75,75-75s75,33.58,75,75-33.58,75-75,75-75-33.58-75-75ZM125,50h75v150h-75c-41.42,0-75-33.58-75-75S83.58,50,125,50ZM125,450h75v75c0,41.42-33.58,75-75,75s-75-33.58-75-75,33.58-75,75-75Z"/>
  </g>
</svg>