<?xml version="1.0" encoding="UTF-8"?>
<svg id="Layer_2" data-name="Layer 2" xmlns="http://www.w3.org/2000/svg" viewBox="0 0 749.8 671.7">
  <defs>
    <style>
      .cls-1 {
        fill: #2e2e2e;
      }
    </style>
  </defs>
  <g id="Layer_1-2" data-name="Layer 1">
    <path class="cls-1" d="M169.82,242.13l204.1,427.57,206.03-427.58H169.82ZM374.9,671.7l-.97-1.77-.25.37,1.22,1.4ZM749.8,242.13h-140.78l-235.03,427.7.9,1.88,374.9-429.58ZM585.77,23.45l26.05,197.45,137.95,21.25L585.77,23.45ZM0,242.13l373.6,428.1.25-.43L138.8,242.15l-138.8-.02ZM164.03,23.45L0,242.12l137.95-21.25,26.07-197.42ZM374.9,0l-210.88,23.43v183.92L374.9,0ZM374.9,0l-189,218.67h378.03L374.9,0ZM374.9,0l210.88,207.35V23.42L374.9,0Z"/>
  </g>
</svg>