<?xml version="1.0" encoding="UTF-8"?>
<svg id="Layer_2" data-name="Layer 2" xmlns="http://www.w3.org/2000/svg" viewBox="0 0 800 800">
  <defs>
    <style>
      .cls-1 {
        fill: #2e2e2e;
      }
    </style>
  </defs>
  <g id="Layer_1-2" data-name="Layer 1">
    <path class="cls-1" d="M800,0H0v800h800V0ZM348,616.5c0,20.71-16.79,37.5-37.5,37.5h-169c-20.71,0-37.5-16.79-37.5-37.5V141.5c0-20.71,16.79-37.5,37.5-37.5h169c20.71,0,37.5,16.79,37.5,37.5v475ZM696,416.5c0,20.71-16.79,37.5-37.5,37.5h-169c-20.71,0-37.5-16.79-37.5-37.5V141.5c0-20.71,16.79-37.5,37.5-37.5h169c20.71,0,37.5,16.79,37.5,37.5v275Z"/>
  </g>
</svg>