<?xml version="1.0" encoding="UTF-8"?>
<svg id="Layer_2" data-name="Layer 2" xmlns="http://www.w3.org/2000/svg" viewBox="0 0 314 314">
  <defs>
    <style>
      .cls-1 {
        fill: #2e2e2e;
      }
    </style>
  </defs>
  <g id="Layer_1-2" data-name="Layer 1">
    <path class="cls-1" d="M21.75,313.99c28.01-56.43,87-67.42,80-88.42-18.93-22.02-25.46-45.67-24.52-66.82-20.33,9.85-44.21,25.88-44.21,25.88,0,0,26.66-27.53,46.81-43.6,1.41-5.59,3.33-10.86,5.63-15.73-23.14-1.18-59.7,4.28-59.7,4.28,0,0,46.57-17.46,70.7-21.3,6.76-7.77,14.59-13.02,22.3-14.7.6-3.1,4.06-8-31-8-31-15-44-51-42-64,9,18,35,42,47,37,15-3,33-3,51,6-2-11-15-22-24-28,15-3,32,5,50,20-13-22-11-31-2-42-7,19,30,46,44,53,3-5-10-28-15.49-34.02,14.49,4.02,27.49,17.02,31.49,31.02,2-7-1-14-5-24,39,24,20,57,18,63,8-5,12-11,18-21,2,19-10,32-13,37s2,5,8,8c-9,1-13,1-12,9,1,8,40,26,45,20,7,8,8,29-1,44-1-3-1-11-7-7-3,16-46-15-59-18-11-1-35-1-47-4-11,21-1,34,25,57,26,23,21,62.99,7.43,85.42h108.82V0H0v314h21.75Z"/>
  </g>
</svg>