<?xml version="1.0" encoding="UTF-8"?>
<svg id="Layer_2" data-name="Layer 2" xmlns="http://www.w3.org/2000/svg" viewBox="0 0 314 314">
  <defs>
    <style>
      .cls-1 {
        fill: #53b3a1;
      }
    </style>
  </defs>
  <g id="Layer_1-2" data-name="Layer 1">
    <g>
      <rect class="cls-1" width="314" height="314"/>
      <path d="M286.75,156.57c-5,6-44-12-45-20s3-8,12-9c-6-3-11-3-8-8s15-18,13-37c-6,10-10,16-18,21,2-6,21-39-18-63,4,10,7,17,5,24-4-14-17-27-31.49-31.02,5.49,6.02,18.49,29.02,15.49,34.02-14-7-51-34-44-53-9,11-11,20,2,42-18-15-35-23-50-20,9,6,22,17,24,28-18-9-36-9-51-6-12,5-38-19-47-37-2,13,11,49,42,64,35.06,0,31.6,4.9,31,8-7.72,1.69-15.55,6.93-22.3,14.7-24.13,3.83-70.7,21.3-70.7,21.3,0,0,36.57-5.46,59.7-4.28-2.3,4.87-4.22,10.14-5.63,15.73-20.15,16.07-46.81,43.6-46.81,43.6,0,0,23.88-16.02,44.21-25.88-.94,21.15,5.59,44.8,24.52,66.82,7,21-51.99,31.57-80,88l183.43.43c13.57-22.43,18.57-62.43-7.43-85.43-26-23-36-36-25-57,12,3,36,3,47,4,13,3,56,34,59,18,6-4,6,4,7,7,9-15,8-36,1-44Z"/>
    </g>
  </g>
</svg>